<?xml version="1.0" encoding="utf-8"?>
<!-- Generator: Adobe Illustrator 22.0.1, SVG Export Plug-In . SVG Version: 6.00 Build 0)  -->
<svg version="1.1" id="Layer_1" xmlns="http://www.w3.org/2000/svg" xmlns:xlink="http://www.w3.org/1999/xlink" x="0px" y="0px"
	 viewBox="0 0 143.1 39.7" style="enable-background:new 0 0 143.1 39.7;" xml:space="preserve">
<style type="text/css">
	.st0{fill-rule:evenodd;clip-rule:evenodd;fill:#D61A0C;}
	.st1{fill:#D61A0C;}
	.st2{fill:#818181;}
</style>
<g>
	<path class="st0" d="M142.8,11.1c0-0.1-0.1-0.2-0.2-0.2h-7.3h-0.4h-7.3c-0.1,0-0.2,0.1-0.2,0.2v2.7c0,0.1,0.1,0.2,0.2,0.2h4.1
		c0.1,0,0.2,0.1,0.1,0.2l-4.2,4.7c-0.1,0.1-0.1,0.3-0.1,0.4v3.4c0,0.1,0.1,0.2,0.2,0.2h7.3h0.4h7.3c0.1,0,0.2-0.1,0.2-0.2v-3
		c0-0.1-0.1-0.2-0.2-0.2h-4.2c-0.1,0-0.1-0.1-0.1-0.2l4.3-5.1c0.1-0.1,0.1-0.3,0.1-0.4V11.1z"/>
	<path class="st1" d="M103.9,5.3h-0.4h-3.6c-0.1,0-0.2,0.1-0.2,0.2l-0.1,17.1c0,0.1,0.1,0.2,0.2,0.2h3.7h0.4h3.6
		c0.1,0,0.2-0.1,0.2-0.2V5.5c0-0.1-0.1-0.2-0.2-0.2H103.9z"/>
	<path class="st0" d="M44.7,22.6c0,0.1-0.1,0.2-0.2,0.2h-7.6c-0.1,0-0.2-0.1-0.2-0.2V11.1c0-0.1,0.1-0.2,0.2-0.2h7.6
		c0.1,0,0.2,0.1,0.2,0.2V22.6z"/>
	<path class="st1" d="M97.7,17.7h-7.8c-0.2,0-0.3,0-0.4-0.1c-0.2-0.1-0.4-0.4-0.4-0.7v-1.4c0-0.5,0.4-0.8,0.8-0.8
		c0.4,0,0.8,0.4,0.8,0.8v0.6h6.9c0,0,0,0,0.1,0c0.1,0,0.1-0.1,0.1-0.1c-0.2-1.9-1.8-5-7.9-5.1h-0.3c-3.4,0-7.6,1.7-7.6,6
		c0,3.6,3.5,5.9,7.6,5.9h0.3c6.3-0.1,7.6-3.8,7.9-5C97.8,17.8,97.8,17.7,97.7,17.7L97.7,17.7z"/>
	<path class="st1" d="M125.4,17.7h-7.8c-0.2,0-0.3-0.1-0.4-0.1c-0.2-0.1-0.4-0.4-0.4-0.7v-1.4c0-0.4,0.4-0.8,0.8-0.8
		c0.4,0,0.8,0.4,0.8,0.8v0.6h6.9c0,0,0,0,0.1,0c0.1,0,0.1-0.1,0.1-0.1c-0.2-1.9-1.8-5-7.9-5.1h-0.3c-3.3,0-7.5,1.7-7.5,6
		c0,3.6,3.5,5.9,7.6,5.9h0.3c6.3-0.1,7.6-3.7,7.9-5C125.5,17.8,125.5,17.7,125.4,17.7L125.4,17.7z"/>
	<path class="st1" d="M55.4,16.2h6.5l0,0h0.2c0.2,0,0.3-0.2,0.3-0.2h0l0-4.5h0v-0.2c0-0.2-0.1-0.2-0.2-0.3h-6.5
		c-0.1,0-0.2,0.1-0.2,0.3v0.2h0v1c0,0-0.8-1.4-2.5-1.5h-0.9c-3.3,0-5.5,2.5-5.5,6c0,0.6,0.1,1.1,0.2,1.6c0.9,3.5,3.7,4.2,4.6,4.3
		h3.1c0.4,0,0.8,0.4,0.8,0.8c0,0.4-0.4,0.8-0.8,0.8h-7.4c-0.1,0-0.2,0.1-0.2,0.3v0.1c0.1,0.3,0.1,0.5,0.2,0.7
		c0.7,1.7,2.1,2.8,3.5,2.8h3.5h3.5c2.5,0,4.6-2.2,4.6-4.4V18c0-0.2-0.1-0.2-0.2-0.3h-6.8c-0.4,0-0.8-0.4-0.8-0.8
		C54.6,16.5,54.9,16.2,55.4,16.2L55.4,16.2z"/>
	<path class="st1" d="M80.2,11.1c0-0.2-0.2-0.3-0.2-0.3h-6.5c0,0-0.1,0-0.1,0.1c0,0,0,0.1-0.1,0.1v6.6c0,0.4-0.4,0.8-0.8,0.8
		c-0.5,0-0.8-0.3-0.8-0.8v-6.5c0-0.2-0.1-0.3-0.2-0.3l-1,0h-5.7c0,0-0.2,0.1-0.2,0.3v0.2V14v4.8c0,1.1,1,3.8,4.4,4h-0.1
		c0.4,0,0.8,0.1,1.2,0.1c0,0,2.2,0.1,3.4-1.5v1.2c0,0.2,0.1,0.2,0.2,0.2H74h0.1H80c0.1,0,0.2-0.1,0.2-0.2V11.1z"/>
	<path class="st1" d="M73.4,10.8L73.4,10.8C73.5,10.8,73.5,10.8,73.4,10.8L73.4,10.8z"/>
	<path class="st1" d="M44.6,8.5c0,0.4-0.3,0.8-0.8,0.8h-6.5c-0.4,0-0.8-0.3-0.8-0.8V7.6c0-0.4,0.3-0.8,0.8-0.8h6.5
		c0.4,0,0.8,0.3,0.8,0.8V8.5z"/>
	<path class="st1" d="M93.5,8.5c0,0.4-0.3,0.8-0.8,0.8h-6.5c-0.4,0-0.8-0.3-0.8-0.8V7.6c0-0.4,0.3-0.8,0.8-0.8h6.5
		c0.4,0,0.8,0.3,0.8,0.8V8.5z"/>
	<path class="st0" d="M26.9,9.5c0-0.2,0.2-0.4,0.4-0.4h6c0.2,0,0.4-0.2,0.4-0.4V5.6c0-0.2-0.2-0.4-0.4-0.4H22.8
		c-0.2,0-0.5,0.1-0.7,0.3l-6.8,6.8c-0.2,0.2-0.4,0.2-0.6,0L7.1,5.5C6.9,5.3,6.6,5.2,6.4,5.2h-6C0.2,5.2,0,5.4,0,5.6v16.8
		c0,0.2,0.2,0.4,0.4,0.4h6.5c0.2,0,0.4-0.2,0.4-0.4v-6.3c0-0.2,0.1-0.3,0.3-0.1l7.2,6.3c0.2,0.1,0.4,0.1,0.6,0l6.8-6.3
		c0.2-0.1,0.3-0.1,0.3,0.1v6.3c0,0.2,0.2,0.4,0.4,0.4h10.4c0.2,0,0.4-0.2,0.4-0.4V11.3c0-0.2-0.2-0.4-0.4-0.4h-6
		c-0.2,0-0.4-0.2-0.4-0.4V9.5z"/>
	<path class="st2" d="M104.5,33.4c-0.3,0.4-0.6,0.6-0.9,0.8c-0.4,0.2-0.7,0.2-1.1,0.2c-0.4,0-0.8-0.1-1.2-0.2
		c-0.4-0.1-0.7-0.3-0.9-0.6c-0.3-0.3-0.4-0.6-0.6-0.9c-0.1-0.4-0.2-0.7-0.2-1.2c0-0.4,0.1-0.8,0.2-1.2c0.1-0.4,0.3-0.7,0.6-0.9
		c0.3-0.3,0.6-0.5,0.9-0.6c0.4-0.2,0.7-0.2,1.2-0.2c0.4,0,0.7,0.1,1.1,0.2c0.3,0.1,0.6,0.4,0.9,0.7l-0.4,0.4
		c-0.2-0.3-0.4-0.5-0.7-0.6c-0.3-0.1-0.6-0.2-0.8-0.2c-0.4,0-0.7,0.1-1,0.2c-0.3,0.1-0.5,0.3-0.7,0.5c-0.2,0.2-0.4,0.5-0.5,0.8
		c-0.1,0.3-0.2,0.6-0.2,1c0,0.3,0.1,0.7,0.2,1c0.1,0.3,0.3,0.6,0.5,0.8c0.2,0.2,0.5,0.4,0.7,0.5c0.3,0.1,0.6,0.2,1,0.2
		c0.1,0,0.3,0,0.4-0.1c0.2,0,0.3-0.1,0.4-0.2c0.1-0.1,0.3-0.2,0.4-0.3c0.1-0.1,0.2-0.2,0.3-0.4L104.5,33.4z"/>
	<path class="st2" d="M110.5,29.3l-1.3,3h2.5L110.5,29.3z M110.3,28.7h0.5l2.3,5.5h-0.6l-0.6-1.5H109l-0.6,1.5h-0.5L110.3,28.7z"/>
	<path class="st2" d="M117.6,33.8h1.2c0.3,0,0.5,0,0.7-0.1c0.2-0.1,0.3-0.2,0.4-0.3c0.1-0.1,0.2-0.2,0.2-0.4c0-0.1,0.1-0.2,0.1-0.3
		c0-0.2,0-0.4-0.1-0.5c-0.1-0.2-0.2-0.3-0.3-0.4c-0.1-0.1-0.3-0.2-0.4-0.2c-0.2-0.1-0.3-0.1-0.5-0.1h-1.3V33.8z M117.6,31.1h1.1
		c0.3,0,0.5,0,0.7-0.1c0.2-0.1,0.3-0.1,0.4-0.2c0.1-0.1,0.2-0.2,0.2-0.3c0-0.1,0.1-0.2,0.1-0.3c0-0.2,0-0.4-0.1-0.5
		c-0.1-0.1-0.2-0.2-0.3-0.3c-0.1-0.1-0.2-0.1-0.4-0.2c-0.1,0-0.3-0.1-0.5-0.1h-1.1V31.1z M117.1,28.7h1.6c0.2,0,0.4,0,0.6,0.1
		c0.2,0,0.4,0.1,0.6,0.2c0.2,0.1,0.3,0.3,0.4,0.4c0.1,0.2,0.2,0.4,0.2,0.8c0,0.3-0.1,0.5-0.3,0.7c-0.2,0.2-0.4,0.4-0.7,0.4v0
		c0.2,0,0.3,0.1,0.5,0.1c0.2,0.1,0.3,0.2,0.4,0.3c0.1,0.1,0.2,0.3,0.3,0.4c0.1,0.2,0.1,0.3,0.1,0.5c0,0.3-0.1,0.6-0.2,0.8
		c-0.1,0.2-0.3,0.4-0.5,0.5c-0.2,0.1-0.4,0.2-0.6,0.2c-0.2,0-0.4,0.1-0.6,0.1h-1.8V28.7z"/>
	<polygon class="st2" points="125.1,28.7 125.7,28.7 125.7,33.8 128.2,33.8 128.2,34.3 125.1,34.3 	"/>
	<polygon class="st2" points="132.2,28.7 135.6,28.7 135.6,29.2 132.7,29.2 132.7,31.2 135.4,31.2 135.4,31.7 132.7,31.7 
		132.7,33.8 135.7,33.8 135.7,34.3 132.2,34.3 	"/>
	<path class="st2" d="M140.1,33.3c0.1,0.2,0.3,0.4,0.5,0.5c0.2,0.1,0.5,0.2,0.7,0.2c0.2,0,0.3,0,0.5-0.1c0.2-0.1,0.3-0.1,0.4-0.2
		c0.1-0.1,0.2-0.2,0.3-0.3c0.1-0.1,0.1-0.3,0.1-0.4c0-0.2,0-0.4-0.1-0.5c-0.1-0.1-0.2-0.2-0.3-0.3c-0.1-0.1-0.3-0.1-0.5-0.2
		c-0.2-0.1-0.4-0.1-0.5-0.2c-0.2-0.1-0.4-0.1-0.5-0.2c-0.2-0.1-0.3-0.2-0.5-0.3c-0.1-0.1-0.2-0.3-0.3-0.4c-0.1-0.2-0.1-0.4-0.1-0.7
		c0-0.3,0-0.5,0.1-0.7c0.1-0.2,0.2-0.4,0.4-0.5c0.2-0.1,0.4-0.2,0.6-0.3c0.2-0.1,0.4-0.1,0.7-0.1c0.3,0,0.6,0.1,0.8,0.2
		c0.3,0.1,0.5,0.3,0.7,0.5l-0.4,0.3c-0.1-0.2-0.3-0.3-0.5-0.4c-0.2-0.1-0.4-0.1-0.6-0.1c-0.2,0-0.3,0-0.5,0.1s-0.3,0.1-0.4,0.2
		c-0.1,0.1-0.2,0.2-0.3,0.3c-0.1,0.1-0.1,0.3-0.1,0.5c0,0.3,0.1,0.5,0.2,0.6c0.1,0.2,0.3,0.3,0.5,0.4c0.2,0.1,0.4,0.2,0.7,0.2
		c0.2,0.1,0.5,0.2,0.7,0.3c0.2,0.1,0.4,0.3,0.5,0.5c0.1,0.2,0.2,0.5,0.2,0.8c0,0.3-0.1,0.5-0.1,0.7c-0.1,0.2-0.2,0.4-0.4,0.5
		c-0.2,0.1-0.3,0.2-0.6,0.3c-0.2,0.1-0.4,0.1-0.6,0.1c-0.4,0-0.7-0.1-1-0.2c-0.3-0.1-0.6-0.3-0.8-0.6L140.1,33.3z"/>
</g>
</svg>
